<svg width="29" height="10" viewBox="0 0 29 10" fill="none" xmlns="http://www.w3.org/2000/svg">
<path d="M0.596924 1H1.59692V7.13H5.38692V8H0.596924V1ZM8.29593 8.06C7.76893 8.06 7.29593 7.94302 6.87593 7.71002C6.45593 7.47702 6.12593 7.157 5.88593 6.75C5.65293 6.337 5.53592 5.86998 5.53592 5.34998C5.53592 4.82998 5.65293 4.36702 5.88593 3.96002C6.12593 3.54702 6.45593 3.227 6.87593 3C7.29593 2.767 7.76893 2.65002 8.29593 2.65002C8.82293 2.65002 9.29292 2.767 9.70592 3C10.1259 3.227 10.4529 3.54702 10.6859 3.96002C10.9259 4.36702 11.0459 4.82998 11.0459 5.34998C11.0459 5.86998 10.9259 6.337 10.6859 6.75C10.4529 7.157 10.1259 7.47702 9.70592 7.71002C9.29292 7.94302 8.82293 8.06 8.29593 8.06ZM8.29593 7.21997C8.63593 7.21997 8.93892 7.14299 9.20592 6.98999C9.47892 6.82999 9.69292 6.61002 9.84592 6.33002C9.99892 6.04302 10.0759 5.71698 10.0759 5.34998C10.0759 4.98298 9.99892 4.66 9.84592 4.38C9.69292 4.093 9.47892 3.87297 9.20592 3.71997C8.93892 3.56697 8.63593 3.48999 8.29593 3.48999C7.95593 3.48999 7.64893 3.56697 7.37593 3.71997C7.10893 3.87297 6.89592 4.093 6.73592 4.38C6.58292 4.66 6.50592 4.98298 6.50592 5.34998C6.50592 5.71698 6.58292 6.04302 6.73592 6.33002C6.89592 6.61002 7.10893 6.82999 7.37593 6.98999C7.64893 7.14299 7.95593 7.21997 8.29593 7.21997ZM17.1439 2.70001V7.28003C17.1439 8.20703 16.9139 8.89002 16.4539 9.33002C15.9939 9.77702 15.3069 10 14.3939 10C13.8939 10 13.4169 9.92998 12.9639 9.78998C12.5099 9.65698 12.1439 9.46302 11.8639 9.21002L12.3239 8.46997C12.5699 8.68297 12.8739 8.84997 13.2339 8.96997C13.5999 9.09697 13.9769 9.15997 14.3639 9.15997C14.9839 9.15997 15.4399 9.01297 15.7339 8.71997C16.0339 8.42697 16.1839 7.98 16.1839 7.38V6.96002C15.9569 7.23302 15.6769 7.44002 15.3439 7.58002C15.0169 7.71302 14.6599 7.78003 14.2739 7.78003C13.7669 7.78003 13.3069 7.67302 12.8939 7.46002C12.4869 7.24002 12.1669 6.93699 11.9339 6.54999C11.6999 6.15699 11.5839 5.71002 11.5839 5.21002C11.5839 4.71002 11.6999 4.267 11.9339 3.88C12.1669 3.487 12.4869 3.18297 12.8939 2.96997C13.3069 2.75697 13.7669 2.65002 14.2739 2.65002C14.6739 2.65002 15.0439 2.723 15.3839 2.87C15.7299 3.017 16.0139 3.23302 16.2339 3.52002V2.70001H17.1439ZM14.3839 6.94C14.7299 6.94 15.0399 6.86697 15.3139 6.71997C15.5939 6.57297 15.8099 6.36999 15.9639 6.10999C16.1239 5.84299 16.2039 5.54302 16.2039 5.21002C16.2039 4.69702 16.0339 4.28297 15.6939 3.96997C15.3539 3.64997 14.9169 3.48999 14.3839 3.48999C13.8439 3.48999 13.4039 3.64997 13.0639 3.96997C12.7239 4.28297 12.5539 4.69702 12.5539 5.21002C12.5539 5.54302 12.6299 5.84299 12.7839 6.10999C12.9439 6.36999 13.1599 6.57297 13.4339 6.71997C13.7139 6.86697 14.0299 6.94 14.3839 6.94ZM21.0639 2.70001H22.0239V8H21.0639V2.70001ZM21.5439 1.67999C21.3569 1.67999 21.1999 1.62 21.0739 1.5C20.9539 1.38 20.8939 1.233 20.8939 1.06C20.8939 0.886998 20.9539 0.739995 21.0739 0.619995C21.1999 0.492995 21.3569 0.429993 21.5439 0.429993C21.7299 0.429993 21.8839 0.489985 22.0039 0.609985C22.1299 0.722985 22.1939 0.866978 22.1939 1.03998C22.1939 1.21998 22.1299 1.373 22.0039 1.5C21.8839 1.62 21.7299 1.67999 21.5439 1.67999ZM26.3859 2.65002C27.0599 2.65002 27.5929 2.84699 27.9859 3.23999C28.3859 3.62699 28.5859 4.19701 28.5859 4.95001V8H27.6259V5.06C27.6259 4.547 27.5029 4.16002 27.2559 3.90002C27.0099 3.64002 26.6559 3.51001 26.1959 3.51001C25.6759 3.51001 25.2659 3.66297 24.9659 3.96997C24.6659 4.26997 24.5159 4.70302 24.5159 5.27002V8H23.5559V2.70001H24.4759V3.5C24.6699 3.227 24.9299 3.017 25.2559 2.87C25.5899 2.723 25.9659 2.65002 26.3859 2.65002Z" fill="#254FE6"/>
</svg>
